<?xml version="1.0" encoding="UTF-8"?>
<svg width="191" height="71" viewBox="0 0 191 71" fill="none" xmlns="http://www.w3.org/2000/svg">
<path d="M33.4782 15.6818C29.6558 15.6812 25.9192 16.8227 22.7408 18.9617C19.5624 21.1007 17.085 24.1413 15.6219 27.6989C14.1587 31.2564 13.7756 35.1712 14.521 38.9482C15.2664 42.7251 17.1068 46.1945 19.8094 48.9177C22.512 51.6408 25.9555 53.4954 29.7043 54.2469C33.4532 54.9983 37.339 54.6129 40.8704 53.1394C44.4019 51.6658 47.4202 49.1704 49.5439 45.9685C51.6675 42.7667 52.801 39.0023 52.801 35.1515C52.7953 29.99 50.7578 25.0415 47.1354 21.3916C43.5129 17.7416 38.6014 15.6882 33.4782 15.6818V15.6818ZM16.1037 35.1515C16.1011 32.6962 16.6135 30.2681 17.6072 28.0262L25.8965 50.9033C22.9608 49.4689 20.4853 47.2307 18.7535 44.445C17.0216 41.6592 16.1033 38.4385 16.1037 35.1515V35.1515ZM33.4782 52.6556C31.8162 52.6561 30.1627 52.416 28.5684 51.9428L33.7837 36.6824L39.1223 51.4217C39.1569 51.505 39.1981 51.5853 39.2455 51.662C37.3929 52.3201 35.4426 52.656 33.4782 52.6556V52.6556ZM35.8607 26.9435C36.9059 26.8868 37.8493 26.7761 37.8493 26.7761C38.0335 26.7543 38.2023 26.6616 38.3202 26.5173C38.4381 26.373 38.496 26.1883 38.4818 26.002C38.4676 25.8156 38.3824 25.642 38.244 25.5176C38.1056 25.3931 37.9248 25.3274 37.7394 25.3343C37.7394 25.3343 34.9254 25.5584 33.1083 25.5584C31.4012 25.5584 28.5309 25.3343 28.5309 25.3343C27.5956 25.2803 27.4857 26.7221 28.421 26.7761C28.421 26.7761 29.3081 26.8868 30.2434 26.9435L32.9502 34.4144L29.1607 45.9029L22.8359 26.9435C23.8811 26.8868 24.8218 26.7761 24.8218 26.7761C25.006 26.7543 25.1748 26.6616 25.2927 26.5173C25.4106 26.373 25.4685 26.1883 25.4543 26.002C25.4401 25.8156 25.3549 25.642 25.2165 25.5176C25.0781 25.3931 24.8973 25.3274 24.7119 25.3343C24.7119 25.3343 21.8979 25.5584 20.0809 25.5584C19.7566 25.5584 19.3707 25.5584 18.9633 25.5368C20.3446 23.4189 22.166 21.6286 24.3016 20.2896C26.4372 18.9506 28.836 18.0949 31.332 17.7817C33.8281 17.4684 36.3619 17.7051 38.7583 18.4754C41.1547 19.2456 43.3564 20.531 45.2112 22.2428C45.1389 22.2428 45.0638 22.2266 44.9861 22.2266C43.2816 22.2266 42.0703 23.7251 42.0703 25.3343C42.0703 26.7761 42.8957 27.9965 43.7774 29.441C44.4367 30.6047 45.2085 32.1032 45.2085 34.2659C45.2085 35.7671 44.7681 37.6571 43.8873 39.9359L42.1533 45.7706L35.8607 26.9435ZM42.2016 50.2796L47.5187 34.814C48.5103 32.3165 48.8399 30.3212 48.8399 28.5446C48.8409 27.9423 48.8015 27.3406 48.722 26.7437C50.8929 30.7469 51.4273 35.4457 50.2115 39.8399C48.9957 44.2341 46.1257 47.9768 42.2123 50.2715L42.2016 50.2796Z" fill="#151E25"/>
<path d="M69.9744 27.1324L66.0696 38.7424C65.6479 40.0482 65.357 41.3932 65.2013 42.7573H65.1021C64.9477 41.393 64.6568 40.0478 64.2338 38.7424L60.329 27.1324H55.1111L62.5132 46.7074H67.7902L75.195 27.1324H69.9744Z" fill="#151E25"/>
<path d="M77.7995 27.1298L76.3228 31.034V46.7047H81.5408V27.1298H77.7995Z" fill="#151E25"/>
<path d="M100.084 29.441C98.7864 27.6572 96.9908 26.7644 94.6967 26.7626C92.2633 26.7626 90.6124 27.7319 89.3716 29.6678H89.1277L88.3799 27.1298H84.1509V55.604H89.3716V47.3879C89.3716 47.1287 89.2822 46.1828 89.1036 44.5502H89.3716C90.6687 46.2188 92.274 47.0531 94.5573 47.0531C95.9722 47.0844 97.3603 46.6617 98.5211 45.8462C99.7079 44.9563 100.611 43.7362 101.118 42.3362C101.761 40.5952 102.07 38.7473 102.029 36.8903C102.029 33.7061 101.381 31.223 100.084 29.441ZM93.2468 42.7304C91.905 42.7304 90.9224 42.275 90.2988 41.3642C89.6753 40.4534 89.3653 38.9477 89.3689 36.8471V36.2693C89.3921 34.4009 89.7048 33.0617 90.3069 32.2517C90.909 31.4417 91.8648 31.0358 93.1745 31.034C94.4251 31.034 95.3435 31.5155 95.9295 32.4785C96.5155 33.4415 96.8077 34.886 96.8059 36.812C96.8077 40.7576 95.6213 42.7304 93.2468 42.7304Z" fill="#151E25"/>
<path d="M118.92 19.6128H122.096V24.1488C121.606 24.3119 121.103 24.4338 120.593 24.5133C120.021 24.5956 119.444 24.6345 118.867 24.6294C118.026 24.6593 117.193 24.4597 116.455 24.0516C115.804 23.669 115.285 23.0953 114.968 22.4073C114.613 21.611 114.439 20.7446 114.461 19.872C114.44 19.0031 114.632 18.1423 115.021 17.3664C115.386 16.6611 115.953 16.0826 116.648 15.7059C117.442 15.294 118.327 15.0915 119.221 15.1173C119.711 15.1141 120.201 15.1621 120.681 15.2604C121.12 15.3483 121.548 15.4823 121.96 15.66L121.523 16.6725C121.165 16.5238 120.798 16.4002 120.424 16.3026C120.01 16.1938 119.584 16.1394 119.156 16.1406C118.058 16.1406 117.202 16.4754 116.589 17.145C115.976 17.8146 115.67 18.7236 115.67 19.872C115.657 20.54 115.778 21.2037 116.023 21.8241C116.244 22.3727 116.634 22.8355 117.136 23.1444C117.744 23.4861 118.434 23.6507 119.13 23.6196C119.474 23.6236 119.818 23.602 120.159 23.5548C120.418 23.5157 120.676 23.4634 120.93 23.3982V20.6496H118.912L118.92 19.6128Z" fill="#C19A67"/>
<path d="M133.596 19.8613C133.616 20.7216 133.451 21.5761 133.114 22.3669C132.815 23.0544 132.317 23.6351 131.686 24.0328C130.984 24.4497 130.179 24.6567 129.365 24.6295C128.533 24.66 127.71 24.4532 126.99 24.0328C126.36 23.6363 125.869 23.0522 125.583 22.3615C125.259 21.5644 125.102 20.7088 125.12 19.8478C125.103 18.9973 125.26 18.1525 125.583 17.3665C125.868 16.6797 126.355 16.098 126.98 15.7006C127.711 15.2743 128.548 15.0673 129.392 15.1039C130.203 15.0768 131.005 15.2808 131.707 15.6925C132.335 16.0901 132.83 16.6686 133.127 17.353C133.46 18.1456 133.62 19.001 133.596 19.8613V19.8613ZM126.342 19.8613C126.342 21.0277 126.586 21.9457 127.076 22.6153C127.566 23.2849 128.328 23.6197 129.365 23.6197C130.403 23.6197 131.164 23.2849 131.648 22.6153C132.132 21.9457 132.374 21.0277 132.374 19.8613C132.374 18.6949 132.134 17.7805 131.653 17.1181C131.173 16.4557 130.419 16.1254 129.392 16.1272C128.345 16.1272 127.577 16.4575 127.089 17.1181C126.602 17.7787 126.352 18.6931 126.342 19.8613V19.8613Z" fill="#C19A67"/>
<path d="M136.917 24.5V15.2471H138.075V23.474H142.095V24.5108L136.917 24.5Z" fill="#C19A67"/>
<path d="M152.301 19.7831C152.301 21.3473 151.879 22.5245 151.036 23.3147C150.193 24.1049 149.015 24.5 147.504 24.5H144.936V15.2471H147.766C148.595 15.2274 149.417 15.405 150.165 15.7655C150.834 16.0997 151.384 16.6333 151.741 17.2937C152.134 18.0621 152.327 18.9188 152.301 19.7831V19.7831ZM151.079 19.8209C151.079 18.587 150.779 17.6798 150.173 17.1209C149.567 16.562 148.713 16.2569 147.606 16.2569H146.102V23.501H147.348C149.835 23.501 151.079 22.2743 151.079 19.8209V19.8209Z" fill="#C19A67"/>
<path d="M120.696 40.052L119.589 37.1873H115.95L114.856 40.052H113.685L117.273 30.764H118.316L121.888 40.052H120.696ZM119.243 36.164L118.214 33.3641C118.187 33.2966 118.144 33.1697 118.086 32.9888C118.027 32.8079 117.968 32.6189 117.911 32.4245C117.855 32.2301 117.809 32.0816 117.775 31.979C117.708 32.249 117.635 32.519 117.563 32.762C117.491 33.005 117.429 33.2183 117.378 33.3641L116.336 36.164H119.243Z" fill="#C19A67"/>
<path d="M128.169 35.1648H131.345V39.7008C130.855 39.8639 130.352 39.9858 129.842 40.0653C129.271 40.1477 128.695 40.1865 128.118 40.1814C127.277 40.2112 126.444 40.0116 125.706 39.6036C125.056 39.2217 124.538 38.6477 124.222 37.9593C123.864 37.1637 123.69 36.297 123.712 35.424C123.693 34.5552 123.885 33.6948 124.273 32.9184C124.637 32.2131 125.204 31.6346 125.899 31.2579C126.694 30.846 127.579 30.6435 128.472 30.6693C128.963 30.6661 129.452 30.7141 129.933 30.8124C130.372 30.9003 130.8 31.0343 131.211 31.212L130.774 32.2245C130.417 32.0758 130.05 31.9522 129.675 31.8546C129.262 31.7458 128.836 31.6914 128.408 31.6926C127.309 31.6926 126.453 32.0274 125.84 32.697C125.228 33.3666 124.921 34.2756 124.921 35.424C124.909 36.092 125.029 36.7557 125.275 37.3761C125.496 37.9247 125.886 38.3875 126.387 38.6964C126.995 39.0381 127.685 39.2027 128.381 39.1716C128.725 39.1757 129.069 39.154 129.41 39.1068C129.67 39.0677 129.927 39.0154 130.182 38.9502V36.2016H128.164L128.169 35.1648Z" fill="#C19A67"/>
<path d="M139.965 40.052H134.833V30.7991H139.965V31.8224H135.99V34.7114H139.742V35.7239H135.99V39.0287H139.965V40.052Z" fill="#C19A67"/>
<path d="M150.564 40.052H149.224L144.309 32.3678H144.258C144.274 32.6702 144.296 33.0455 144.322 33.4937C144.349 33.9446 144.36 34.4063 144.36 34.8815V40.052H143.288V30.7991H144.628L149.53 38.459H149.581C149.581 38.3186 149.562 38.1134 149.548 37.8353C149.535 37.5572 149.524 37.2602 149.511 36.9362C149.497 36.6122 149.492 36.3071 149.492 36.0209V30.7991H150.564V40.052Z" fill="#C19A67"/>
<path d="M158.272 31.6926C157.834 31.6711 157.397 31.7498 156.994 31.9229C156.59 32.0959 156.231 32.3587 155.943 32.6916C155.377 33.3558 155.093 34.2666 155.093 35.424C155.093 36.5814 155.361 37.4913 155.897 38.1537C156.433 38.8233 157.225 39.1581 158.272 39.1581C158.651 39.1595 159.03 39.1242 159.403 39.0528C159.765 38.9818 160.122 38.8917 160.475 38.7828V39.7953C160.127 39.9211 159.768 40.0116 159.403 40.0653C158.97 40.1319 158.533 40.1626 158.095 40.1571C157.276 40.1869 156.466 39.9848 155.755 39.5739C155.126 39.1819 154.634 38.6026 154.346 37.9161C154.017 37.1157 153.857 36.255 153.877 35.3889C153.859 34.5372 154.033 33.6925 154.386 32.9184C154.708 32.2229 155.23 31.6407 155.884 31.2471C156.617 30.8251 157.452 30.6167 158.296 30.645C159.171 30.6239 160.039 30.8088 160.831 31.185L160.368 32.1705C160.056 32.0385 159.735 31.9293 159.408 31.8438C159.039 31.7376 158.656 31.6867 158.272 31.6926V31.6926Z" fill="#C19A67"/>
<path d="M166.143 35.354L168.536 30.8045H169.785L166.722 36.4745V40.0655H165.572V36.515L162.512 30.7991H163.771L166.143 35.354Z" fill="#C19A67"/>
<path d="M117.364 46.3511C118.565 46.3511 119.439 46.5887 119.988 47.0639C120.266 47.3149 120.484 47.6258 120.627 47.9736C120.769 48.3214 120.832 48.6971 120.81 49.0727C120.814 49.5704 120.697 50.0615 120.47 50.5037C120.212 50.9773 119.812 51.3556 119.326 51.5837C118.64 51.8906 117.893 52.0329 117.144 51.9995H116.091V55.604H114.933V46.3511H117.364ZM117.259 47.3474H116.091V51.014H117.015C117.891 51.014 118.543 50.8718 118.972 50.5874C119.401 50.303 119.615 49.8188 119.615 49.1348C119.634 48.8823 119.591 48.629 119.492 48.3966C119.392 48.1643 119.237 47.9599 119.042 47.801C118.661 47.5004 118.067 47.3492 117.259 47.3474Z" fill="#C19A67"/>
<path d="M129.124 55.6039L128.017 52.7392H124.375L123.282 55.6039H122.111L125.699 46.3105H126.742L130.317 55.6039H129.124ZM127.672 51.7024L126.642 48.9025C126.616 48.835 126.573 48.7081 126.514 48.5272C126.455 48.3463 126.393 48.1573 126.34 47.9629C126.286 47.7685 126.238 47.62 126.203 47.5174C126.136 47.7874 126.064 48.0574 125.991 48.3004C125.919 48.5434 125.857 48.7567 125.806 48.9025L124.764 51.7024H127.672Z" fill="#C19A67"/>
<path d="M135.398 46.3511C136.54 46.3511 137.381 46.5698 137.928 47.0045C138.474 47.4392 138.732 48.1007 138.732 48.9809C138.747 49.4075 138.655 49.8312 138.464 50.2121C138.296 50.5247 138.061 50.7951 137.775 51.0032C137.505 51.1981 137.208 51.351 136.893 51.4568L139.426 55.604H138.086L135.859 51.7808H134.034V55.604H132.876V46.3511H135.398ZM135.334 47.3609H134.023V50.7953H135.398C136.146 50.7953 136.691 50.6468 137.033 50.3498C137.21 50.1825 137.349 49.9775 137.438 49.7495C137.527 49.5216 137.564 49.2765 137.547 49.0322C137.547 48.4274 137.369 47.9981 137.011 47.7443C136.654 47.4905 136.095 47.3627 135.334 47.3609Z" fill="#C19A67"/>
<path d="M145.059 55.604H143.902V47.3744H141.034V46.3511H147.916V47.3744H145.059V55.604Z" fill="#C19A67"/>
<path d="M157.872 55.604H156.532L151.617 47.9198H151.566C151.584 48.2222 151.605 48.5975 151.63 49.0457C151.657 49.4966 151.67 49.9583 151.67 50.4335V55.604H150.598V46.3511H151.938L156.84 54.011H156.891C156.891 53.8706 156.872 53.6654 156.859 53.3873C156.845 53.1092 156.835 52.8122 156.821 52.4882C156.808 52.1642 156.802 51.8591 156.802 51.5729V46.3511H157.874L157.872 55.604Z" fill="#C19A67"/>
<path d="M166.787 55.604H161.655V46.3511H166.787V47.3744H162.812V50.2634H166.564V51.284H162.812V54.5888H166.787V55.604Z" fill="#C19A67"/>
<path d="M172.625 46.3511C173.767 46.3511 174.608 46.5698 175.155 47.0045C175.702 47.4392 175.959 48.1007 175.959 48.9809C175.975 49.4075 175.883 49.8312 175.691 50.2121C175.524 50.5247 175.288 50.7951 175.002 51.0032C174.733 51.1981 174.436 51.351 174.121 51.4568L176.653 55.604H175.313L173.076 51.7808H171.25V55.604H170.093V46.3511H172.625ZM172.561 47.3609H171.25V50.7953H172.625C173.372 50.7953 173.917 50.6468 174.26 50.3498C174.438 50.1825 174.576 49.9775 174.665 49.7495C174.754 49.5216 174.792 49.2765 174.775 49.0322C174.775 48.4274 174.596 47.9981 174.239 47.7443C173.881 47.4905 173.322 47.3627 172.561 47.3609Z" fill="#C19A67"/>
<path fill-rule="evenodd" clip-rule="evenodd" d="M0.601593 0.604004H190.202V70.104H0.601593V0.604004ZM2.60159 2.604V68.104H188.202V2.604H2.60159Z" fill="#C19A67"/>
</svg>
