<svg width="56" height="56" viewBox="0 0 56 56" fill="none" xmlns="http://www.w3.org/2000/svg">
<g clip-path="url(#clip0_73_116)">
<rect width="56" height="56" fill="white"/>
<circle cx="28" cy="28" r="28" fill="#D9D9D9"/>
<path d="M41.3335 28L42.0406 28.7071L42.7477 28L42.0406 27.2929L41.3335 28ZM16.3335 27C15.7812 27 15.3335 27.4477 15.3335 28C15.3335 28.5523 15.7812 29 16.3335 29L16.3335 27ZM32.0406 38.7071L42.0406 28.7071L40.6264 27.2929L30.6264 37.2929L32.0406 38.7071ZM42.0406 27.2929L32.0406 17.2929L30.6264 18.7071L40.6264 28.7071L42.0406 27.2929ZM41.3335 27L16.3335 27L16.3335 29L41.3335 29L41.3335 27Z" fill="#33363F"/>
</g>
<defs>
<clipPath id="clip0_73_116">
<rect width="56" height="56" fill="white"/>
</clipPath>
</defs>
</svg>
